<svg xmlns="http://www.w3.org/2000/svg" xmlns:xlink="http://www.w3.org/1999/xlink" width="164" height="246" viewBox="0 0 164 246"><defs><style>.a{fill:none;}.b{fill:#551113;}.c{clip-path:url(#a);}.d{fill:#e3b86c;}.e{fill:#d29b59;}</style><clipPath id="a"><rect class="a" width="164" height="246"/></clipPath></defs><path class="b" d="M32.966,382.158l-1.739,41.893h10.4L39.89,382.158H32.966Z" transform="translate(-22.694 -277.73)"/><path class="b" d="M116.909,424.051h10.4l-1.739-41.893h-6.924Z" transform="translate(-84.962 -277.73)"/><path class="b" d="M211.254,382.158h-6.924l-1.739,41.893h10.4Z" transform="translate(-147.231 -277.73)"/><g class="c"><path class="d" d="M92.111,338.054a.058.058,0,0,0,.02-.111L65.918,328.1a.866.866,0,0,0-.608,0L39.1,337.943a.058.058,0,0,0,.02.111H92.111Z" transform="translate(-28.385 -238.4)"/><path class="e" d="M91.363,369.461v-4.418a.356.356,0,0,0-.356-.356H37.981a.387.387,0,0,0-.387.387v4.387H91.363Z" transform="translate(-27.321 -265.033)"/><path class="b" d="M34.587,538.057H26.434A1.106,1.106,0,0,1,25.245,537l.064-1.537H23.431a.347.347,0,0,0-.347.347v3.551a.347.347,0,0,0,.347.347H37.59a.347.347,0,0,0,.347-.347v-3.551a.347.347,0,0,0-.347-.347H35.712L35.776,537a1.106,1.106,0,0,1-1.189,1.054" transform="translate(-16.776 -389.145)"/><path class="b" d="M30.992,537a1.106,1.106,0,0,0,1.189,1.054h8.153A1.106,1.106,0,0,0,41.522,537l-.064-1.537h-10.4Z" transform="translate(-22.523 -389.145)"/><path class="b" d="M120.483,538.057h-8.154A1.106,1.106,0,0,1,111.141,537l.064-1.537h-1.8a.347.347,0,0,0-.347.347v3.551a.347.347,0,0,0,.347.347h14.159a.347.347,0,0,0,.347-.347v-3.551a.347.347,0,0,0-.347-.347h-1.959l.064,1.537a1.106,1.106,0,0,1-1.188,1.054" transform="translate(-79.258 -389.145)"/><path class="b" d="M116.673,537a1.106,1.106,0,0,0,1.188,1.054h8.154A1.106,1.106,0,0,0,127.2,537l-.064-1.537h-10.4Z" transform="translate(-84.791 -389.145)"/><path class="b" d="M208.954,535.466h-1.878l.064,1.537a1.105,1.105,0,0,1-1.188,1.054H197.8A1.106,1.106,0,0,1,196.609,537l.064-1.537h-1.878a.347.347,0,0,0-.347.347v3.55a.347.347,0,0,0,.347.347h14.159a.347.347,0,0,0,.347-.347v-3.55a.347.347,0,0,0-.347-.347" transform="translate(-141.313 -389.145)"/><path class="b" d="M203.543,538.057H211.7A1.105,1.105,0,0,0,212.885,537l-.064-1.537h-10.4L202.355,537a1.106,1.106,0,0,0,1.188,1.054" transform="translate(-147.059 -389.145)"/><path class="b" d="M288.873,384.242,284.7,373.369h-5.428v1.984h1.9v11.894h-1.685a.22.22,0,0,0-.22.22v1.545a.22.22,0,0,0,.22.22h5.171a.22.22,0,0,0,.22-.22v-1.545a.22.22,0,0,0-.22-.22h-1.525V375.353l5.417,14.038h.468l5.474-14.038v11.894h-1.506a.387.387,0,0,0-.387.387v1.21a.387.387,0,0,0,.387.387h5.2a.387.387,0,0,0,.387-.387v-1.21a.387.387,0,0,0-.387-.387h-1.529V375.353h1.916v-1.984h-5.485Z" transform="translate(-202.958 -271.343)"/><path class="b" d="M363.87,372.426h-5.042a.387.387,0,0,0-.387.387v1.21a.387.387,0,0,0,.387.387h1.323V386.3h-1.323a.387.387,0,0,0-.387.387v1.21a.387.387,0,0,0,.387.387h5.042a.387.387,0,0,0,.387-.387v-1.21a.387.387,0,0,0-.387-.387h-1.324V374.41h1.324a.387.387,0,0,0,.387-.387v-1.21a.387.387,0,0,0-.387-.387" transform="translate(-260.494 -270.657)"/><path class="b" d="M400.037,373.874a6.729,6.729,0,0,0-2.663-1.186,22.266,22.266,0,0,0-3.917-.262h-5.748a.387.387,0,0,0-.387.387v1.21a.387.387,0,0,0,.387.387h1.768V386.3h-1.768a.387.387,0,0,0-.387.387v1.21a.387.387,0,0,0,.387.387h5.383a21.837,21.837,0,0,0,4.225-.337,7.416,7.416,0,0,0,2.862-1.191,5.932,5.932,0,0,0,1.945-2.589,10.328,10.328,0,0,0,.741-4.082,8.443,8.443,0,0,0-.77-3.678,6.472,6.472,0,0,0-2.058-2.537m-.148,9.362a4.406,4.406,0,0,1-1.368,1.91,5.222,5.222,0,0,1-2.07.9,16.609,16.609,0,0,1-3.324.262h-1.254V374.41h1.357a14.254,14.254,0,0,1,4.122.439,4.034,4.034,0,0,1,2.2,1.876,6.7,6.7,0,0,1,.861,3.5,7.9,7.9,0,0,1-.524,3.011" transform="translate(-281.483 -270.657)"/><path class="b" d="M469.514,372.426h-5.293a.387.387,0,0,0-.387.387v1.21a.387.387,0,0,0,.387.387h1.472v4.539h-6.9V374.41h1.483a.387.387,0,0,0,.387-.387v-1.21a.387.387,0,0,0-.387-.387h-5.293a.387.387,0,0,0-.387.387v1.21a.387.387,0,0,0,.387.387H456.4V386.3h-1.415a.387.387,0,0,0-.387.387v1.21a.387.387,0,0,0,.387.387h5.293a.387.387,0,0,0,.387-.387v-1.21a.387.387,0,0,0-.387-.387h-1.483v-5.371h6.9V386.3h-1.472a.387.387,0,0,0-.387.387v1.21a.387.387,0,0,0,.387.387h5.293a.387.387,0,0,0,.387-.387v-1.21a.387.387,0,0,0-.387-.387h-1.426V374.41h1.426a.387.387,0,0,0,.387-.387v-1.21a.387.387,0,0,0-.387-.387" transform="translate(-330.375 -270.657)"/><path class="b" d="M532.19,386.3H530.8l-4.439-12.088h1.982v-1.79h-8.108v1.79h1.917L517.824,386.3h-1.532a.387.387,0,0,0-.387.387v1.21a.387.387,0,0,0,.387.387h5.475a.387.387,0,0,0,.387-.387v-1.21a.387.387,0,0,0-.387-.387h-1.54l1.213-3.592h5.715l1.179,3.592h-1.585a.387.387,0,0,0-.387.387v1.21a.387.387,0,0,0,.387.387h5.441a.387.387,0,0,0,.387-.387v-1.21a.387.387,0,0,0-.387-.387m-10.158-5.451,2.2-6.637h.217l2.111,6.637Z" transform="translate(-374.929 -270.658)"/><path class="e" d="M292.642,468.875V446.044H288.79v-3.808h23.619v9.171h-3.765v-5.363h-11.4v9.019h9.829v3.809h-9.829v10h3.9v3.809H288.79v-3.809Z" transform="translate(-209.875 -321.391)"/><path class="e" d="M392.054,468.875V446.044H388.77v-3.808h11.164v3.808H396.65v22.831h3.283v3.809H388.77v-3.809Z" transform="translate(-282.535 -321.391)"/><path class="e" d="M447.287,468.875V446.044h-4.356v-3.808h10.394L466.681,465.9v-19.86h-4.313v-3.808h12.5v3.808h-4.487V472.99h-4.718L451.052,447v21.873h4.356v3.809H442.931v-3.809Z" transform="translate(-321.896 -321.391)"/><path class="d" d="M873.388,318.736a.058.058,0,0,0,.02-.111l-26.213-9.847a.866.866,0,0,0-.608,0l-26.214,9.847a.058.058,0,0,0,.02.111h52.995Z" transform="translate(-596.172 -224.361)"/><path class="e" d="M872.639,350.143v-4.418a.356.356,0,0,0-.356-.356H819.257a.387.387,0,0,0-.387.387v4.387h53.769Z" transform="translate(-595.106 -250.994)"/><path class="b" d="M815.863,518.739H807.71a1.106,1.106,0,0,1-1.189-1.054l.064-1.537h-1.878a.347.347,0,0,0-.347.347v3.55a.347.347,0,0,0,.347.347h14.159a.347.347,0,0,0,.347-.347v-3.55a.347.347,0,0,0-.347-.347h-1.878l.064,1.537a1.106,1.106,0,0,1-1.189,1.054" transform="translate(-584.561 -375.106)"/><path class="b" d="M812.268,517.685a1.106,1.106,0,0,0,1.189,1.054h8.153a1.106,1.106,0,0,0,1.189-1.054l-.064-1.537h-10.4Z" transform="translate(-590.308 -375.106)"/><path class="b" d="M901.76,518.739h-8.154a1.106,1.106,0,0,1-1.188-1.054l.064-1.537h-1.8a.347.347,0,0,0-.347.347v3.55a.347.347,0,0,0,.347.347h14.159a.347.347,0,0,0,.347-.347v-3.55a.347.347,0,0,0-.347-.347h-1.959l.064,1.537a1.106,1.106,0,0,1-1.188,1.054" transform="translate(-647.044 -375.106)"/><path class="b" d="M897.95,517.685a1.106,1.106,0,0,0,1.188,1.054h8.154a1.106,1.106,0,0,0,1.188-1.054l-.064-1.537h-10.4Z" transform="translate(-652.577 -375.106)"/><path class="b" d="M990.23,516.148h-1.878l.064,1.537a1.106,1.106,0,0,1-1.188,1.054h-8.154a1.106,1.106,0,0,1-1.188-1.054l.064-1.537h-1.878a.347.347,0,0,0-.347.347v3.55a.347.347,0,0,0,.347.347H990.23a.347.347,0,0,0,.347-.347V516.5a.347.347,0,0,0-.347-.347" transform="translate(-709.099 -375.106)"/><path class="b" d="M984.819,518.739h8.154a1.105,1.105,0,0,0,1.188-1.054l-.064-1.537h-10.4l-.064,1.537a1.106,1.106,0,0,0,1.188,1.054" transform="translate(-714.844 -375.106)"/><path class="b" d="M1070.15,364.924l-4.174-10.873h-5.428v1.984h1.9v11.894h-1.685a.22.22,0,0,0-.22.22v1.545a.22.22,0,0,0,.22.22h5.171a.22.22,0,0,0,.22-.22v-1.545a.22.22,0,0,0-.22-.22h-1.525V356.035l5.417,14.038h.468l5.474-14.038v11.894h-1.506a.387.387,0,0,0-.387.387v1.21a.387.387,0,0,0,.387.387h5.2a.387.387,0,0,0,.387-.387v-1.21a.387.387,0,0,0-.387-.387h-1.529V356.035h1.916v-1.984h-5.485Z" transform="translate(-770.744 -257.303)"/><path class="b" d="M1145.146,353.108H1140.1a.387.387,0,0,0-.387.387v1.21a.387.387,0,0,0,.387.387h1.323v11.894H1140.1a.387.387,0,0,0-.387.387v1.21a.387.387,0,0,0,.387.387h5.042a.387.387,0,0,0,.387-.387v-1.21a.387.387,0,0,0-.387-.387h-1.324V355.092h1.324a.387.387,0,0,0,.387-.387V353.5a.387.387,0,0,0-.387-.387" transform="translate(-828.279 -256.618)"/><path class="b" d="M1181.314,354.556a6.728,6.728,0,0,0-2.663-1.186,22.264,22.264,0,0,0-3.917-.262h-5.748a.387.387,0,0,0-.387.387v1.21a.387.387,0,0,0,.387.387h1.768v11.894h-1.768a.387.387,0,0,0-.387.387v1.21a.387.387,0,0,0,.387.387h5.383a21.837,21.837,0,0,0,4.225-.337,7.415,7.415,0,0,0,2.862-1.191,5.933,5.933,0,0,0,1.945-2.589,10.331,10.331,0,0,0,.741-4.082,8.443,8.443,0,0,0-.77-3.678,6.472,6.472,0,0,0-2.058-2.537m-.148,9.362a4.4,4.4,0,0,1-1.368,1.91,5.224,5.224,0,0,1-2.07.9,16.612,16.612,0,0,1-3.324.262h-1.254V355.092h1.357a14.254,14.254,0,0,1,4.122.439,4.033,4.033,0,0,1,2.2,1.876,6.7,6.7,0,0,1,.861,3.5,7.9,7.9,0,0,1-.524,3.011" transform="translate(-849.269 -256.618)"/><path class="b" d="M1250.79,353.108H1245.5a.387.387,0,0,0-.387.387v1.21a.387.387,0,0,0,.387.387h1.472v4.539h-6.9v-4.539h1.483a.387.387,0,0,0,.387-.387V353.5a.387.387,0,0,0-.387-.387h-5.293a.387.387,0,0,0-.387.387v1.21a.387.387,0,0,0,.387.387h1.415v11.894h-1.415a.387.387,0,0,0-.387.387v1.21a.387.387,0,0,0,.387.387h5.293a.387.387,0,0,0,.387-.387v-1.21a.387.387,0,0,0-.387-.387h-1.483v-5.371h6.9v5.371H1245.5a.387.387,0,0,0-.387.387v1.21a.387.387,0,0,0,.387.387h5.293a.387.387,0,0,0,.387-.387v-1.21a.387.387,0,0,0-.387-.387h-1.426V355.092h1.426a.387.387,0,0,0,.387-.387V353.5a.387.387,0,0,0-.387-.387" transform="translate(-898.16 -256.618)"/><path class="b" d="M1313.467,366.987h-1.388L1307.64,354.9h1.982v-1.79h-8.107v1.79h1.917l-4.331,12.088h-1.532a.387.387,0,0,0-.387.387v1.21a.387.387,0,0,0,.387.387h5.475a.387.387,0,0,0,.387-.387v-1.21a.387.387,0,0,0-.387-.387h-1.54l1.213-3.592h5.715l1.179,3.592h-1.585a.387.387,0,0,0-.387.387v1.21a.387.387,0,0,0,.387.387h5.441a.387.387,0,0,0,.387-.387v-1.21a.387.387,0,0,0-.387-.387m-10.158-5.451,2.2-6.637h.217l2.111,6.637Z" transform="translate(-942.715 -256.619)"/><path class="e" d="M1073.919,449.557V426.726h-3.852v-3.808h23.619v9.171h-3.765v-5.363h-11.4v9.019h9.829v3.809h-9.829v10h3.9v3.809h-12.346v-3.809Z" transform="translate(-777.661 -307.352)"/><path class="e" d="M1173.33,449.557V426.726h-3.283v-3.808h11.164v3.808h-3.284v22.831h3.284v3.809h-11.164v-3.809Z" transform="translate(-850.321 -307.352)"/><path class="e" d="M1228.564,449.557V426.726h-4.356v-3.808H1234.6l13.356,23.668v-19.86h-4.313v-3.808h12.5v3.808h-4.487v26.946h-4.718l-14.61-25.989v21.873h4.356v3.809h-12.477v-3.809Z" transform="translate(-889.682 -307.352)"/></g></svg>